<svg xmlns="http://www.w3.org/2000/svg" xmlns:xlink="http://www.w3.org/1999/xlink" width="70" zoomAndPan="magnify" viewBox="0 0 52.5 52.499999" height="70" preserveAspectRatio="xMidYMid meet" version="1.0"><defs><clipPath id="0a7a773d46"><path d="M 0 0 L 52.003906 0 L 52.003906 52.003906 L 0 52.003906 Z M 0 0 " clip-rule="nonzero"/></clipPath><clipPath id="45671167c7"><path d="M 18.9375 36.574219 L 24.199219 36.574219 L 24.199219 42.304688 L 18.9375 42.304688 Z M 18.9375 36.574219 " clip-rule="nonzero"/></clipPath><clipPath id="b08060edc3"><path d="M 0 9.230469 L 13 9.230469 L 13 27 L 0 27 Z M 0 9.230469 " clip-rule="nonzero"/></clipPath><clipPath id="fb3186e9ff"><path d="M 39.90625 9.984375 L 51.976562 9.984375 L 51.976562 26.941406 L 39.90625 26.941406 Z M 39.90625 9.984375 " clip-rule="nonzero"/></clipPath></defs><g clip-path="url(#0a7a773d46)"><path fill="#ffffff" d="M 0 0 L 52.003906 0 L 52.003906 52.003906 L 0 52.003906 Z M 0 0 " fill-opacity="1" fill-rule="nonzero"/><path fill="#ffffff" d="M 0 0 L 52.003906 0 L 52.003906 52.003906 L 0 52.003906 Z M 0 0 " fill-opacity="1" fill-rule="nonzero"/></g><path fill="#32b4b4" d="M 17.644531 33.527344 L 15.046875 37.011719 C 14.5 37.753906 14.652344 38.808594 15.390625 39.359375 L 15.574219 39.492188 C 15.871094 39.714844 16.222656 39.824219 16.570312 39.824219 C 17.082031 39.824219 17.589844 39.589844 17.917969 39.148438 L 20.515625 35.664062 C 21.0625 34.925781 20.910156 33.871094 20.171875 33.320312 L 19.988281 33.183594 C 19.6875 32.960938 19.339844 32.855469 18.992188 32.855469 C 18.480469 32.855469 17.972656 33.085938 17.644531 33.527344 " fill-opacity="1" fill-rule="nonzero"/><g clip-path="url(#45671167c7)"><path fill="#32b4b4" d="M 21.019531 37.1875 L 19.246094 39.566406 C 18.757812 40.226562 18.894531 41.167969 19.554688 41.660156 L 20.023438 42.007812 C 20.292969 42.207031 20.605469 42.304688 20.914062 42.304688 C 21.371094 42.304688 21.824219 42.09375 22.117188 41.703125 L 23.886719 39.324219 C 24.378906 38.664062 24.242188 37.722656 23.582031 37.230469 L 23.109375 36.882812 C 22.84375 36.683594 22.53125 36.585938 22.21875 36.585938 C 21.761719 36.585938 21.308594 36.796875 21.019531 37.1875 " fill-opacity="1" fill-rule="nonzero"/></g><path fill="#32b4b4" d="M 11.554688 29.425781 L 10.839844 28.894531 C 10.597656 28.714844 10.316406 28.628906 10.039062 28.628906 C 9.628906 28.628906 9.222656 28.816406 8.957031 29.167969 L 7.765625 30.769531 C 7.324219 31.363281 7.449219 32.210938 8.042969 32.652344 L 8.757812 33.183594 C 8.996094 33.359375 9.277344 33.445312 9.554688 33.445312 C 9.96875 33.445312 10.375 33.257812 10.636719 32.90625 L 11.828125 31.304688 C 12.269531 30.714844 12.144531 29.867188 11.554688 29.425781 " fill-opacity="1" fill-rule="nonzero"/><path fill="#32b4b4" d="M 16.832031 29.671875 C 16.515625 29.433594 16.140625 29.320312 15.765625 29.320312 C 15.21875 29.320312 14.675781 29.570312 14.324219 30.039062 L 11.160156 34.296875 C 10.570312 35.085938 10.734375 36.214844 11.527344 36.804688 C 11.84375 37.039062 12.21875 37.15625 12.59375 37.15625 C 13.085938 37.15625 13.578125 36.953125 13.925781 36.566406 C 13.976562 36.476562 14.035156 36.390625 14.097656 36.304688 L 15.601562 34.285156 L 16.695312 32.820312 C 16.769531 32.71875 16.851562 32.625 16.9375 32.535156 L 17.199219 32.179688 C 17.789062 31.390625 17.625 30.261719 16.832031 29.671875 " fill-opacity="1" fill-rule="nonzero"/><g clip-path="url(#b08060edc3)"><path fill="#32b4b4" d="M 7.910156 9.820312 L 0.273438 23.484375 C 0.03125 23.917969 0.1875 24.464844 0.617188 24.707031 L 3.257812 26.179688 C 3.691406 26.421875 4.238281 26.265625 4.480469 25.835938 L 12.113281 12.167969 C 12.355469 11.738281 12.203125 11.191406 11.769531 10.949219 L 9.132812 9.472656 C 8.699219 9.230469 8.152344 9.386719 7.910156 9.820312 " fill-opacity="1" fill-rule="nonzero"/></g><g clip-path="url(#fb3186e9ff)"><path fill="#32b4b4" d="M 40.019531 12.800781 L 47.65625 26.464844 C 47.898438 26.898438 48.445312 27.054688 48.878906 26.8125 L 51.515625 25.339844 C 51.949219 25.097656 52.105469 24.550781 51.863281 24.117188 L 44.226562 10.449219 C 43.984375 10.019531 43.4375 9.863281 43.003906 10.105469 L 40.367188 11.578125 C 39.933594 11.820312 39.777344 12.367188 40.019531 12.800781 " fill-opacity="1" fill-rule="nonzero"/></g><path fill="#32b4b4" d="M 43.136719 31.3125 C 43.15625 30.683594 42.863281 30.082031 42.359375 29.703125 L 38.398438 26.699219 C 36.964844 25.691406 35.175781 24.535156 33.085938 23.261719 C 30.136719 21.46875 27.359375 19.917969 26.070312 19.210938 C 25.867188 19.101562 25.632812 19.070312 25.410156 19.128906 L 23.964844 19.507812 C 23.75 19.5625 23.566406 19.695312 23.441406 19.878906 L 23.4375 19.878906 C 23.039062 20.46875 22.589844 21.007812 22.113281 21.484375 C 21.546875 22.042969 20.949219 22.507812 20.335938 22.867188 C 19.597656 23.292969 18.839844 23.5625 18.078125 23.667969 C 17.910156 23.691406 17.742188 23.703125 17.574219 23.703125 C 16.980469 23.703125 16.421875 23.550781 15.96875 23.261719 C 15.386719 22.890625 15.011719 22.347656 14.886719 21.6875 C 14.742188 20.929688 14.941406 20.0625 15.488281 19.035156 C 15.875 18.3125 16.355469 17.652344 16.707031 17.171875 C 16.792969 17.050781 16.871094 16.949219 16.929688 16.863281 C 17.171875 16.519531 17.453125 16.125 17.769531 15.714844 C 17.851562 15.609375 17.765625 15.457031 17.632812 15.472656 C 16.96875 15.550781 15.464844 15.472656 13.097656 14.007812 C 12.886719 13.878906 12.613281 13.949219 12.492188 14.164062 L 5.929688 25.902344 C 5.792969 26.148438 5.828125 26.457031 6.015625 26.667969 L 7.753906 28.625 C 7.777344 28.652344 7.804688 28.675781 7.832031 28.695312 L 8.007812 28.460938 C 8.246094 28.140625 8.5625 27.878906 8.921875 27.703125 C 9.269531 27.535156 9.652344 27.445312 10.039062 27.445312 C 10.304688 27.445312 10.566406 27.484375 10.820312 27.566406 C 11.082031 27.652344 11.324219 27.777344 11.546875 27.945312 L 12.261719 28.476562 C 12.535156 28.679688 12.757812 28.929688 12.929688 29.222656 C 12.972656 29.292969 13.007812 29.363281 13.042969 29.4375 C 13.085938 29.53125 13.214844 29.546875 13.28125 29.460938 L 13.375 29.332031 C 13.65625 28.953125 14.027344 28.644531 14.449219 28.4375 C 14.855469 28.242188 15.320312 28.136719 15.765625 28.136719 C 16.074219 28.136719 16.386719 28.183594 16.683594 28.28125 C 16.992188 28.378906 17.28125 28.527344 17.542969 28.722656 C 17.863281 28.960938 18.128906 29.257812 18.328125 29.605469 C 18.523438 29.9375 18.652344 30.296875 18.707031 30.679688 C 18.746094 30.945312 18.75 31.210938 18.71875 31.472656 C 18.703125 31.578125 18.789062 31.675781 18.894531 31.671875 C 18.929688 31.667969 18.960938 31.667969 18.992188 31.667969 C 19.289062 31.667969 19.589844 31.714844 19.875 31.808594 C 20.171875 31.902344 20.445312 32.046875 20.695312 32.234375 L 20.878906 32.367188 C 21.773438 33.035156 22.164062 34.125 21.988281 35.15625 C 21.964844 35.285156 22.066406 35.402344 22.199219 35.402344 C 22.207031 35.402344 22.214844 35.402344 22.222656 35.402344 C 22.503906 35.402344 22.78125 35.445312 23.046875 35.53125 C 23.324219 35.621094 23.585938 35.757812 23.820312 35.929688 L 24.289062 36.28125 C 25.476562 37.164062 25.722656 38.84375 24.839844 40.03125 L 24.605469 40.34375 C 24.496094 40.492188 24.523438 40.699219 24.671875 40.808594 C 24.695312 40.828125 24.722656 40.84375 24.753906 40.851562 C 25.28125 41.039062 30.367188 42.769531 31.804688 40.34375 C 31.898438 40.183594 31.835938 39.976562 31.667969 39.898438 L 26.925781 37.578125 C 26.640625 37.4375 26.488281 37.109375 26.582031 36.804688 C 26.648438 36.585938 26.84375 36.382812 27.3125 36.363281 C 27.363281 36.363281 27.410156 36.371094 27.457031 36.394531 L 32.335938 38.941406 C 32.882812 39.226562 33.503906 39.347656 34.117188 39.269531 C 34.871094 39.179688 35.6875 38.789062 35.757812 37.5625 C 35.777344 37.242188 35.613281 36.9375 35.332031 36.773438 L 29.246094 33.226562 C 29.007812 33.089844 28.878906 32.816406 28.925781 32.546875 C 28.96875 32.292969 29.101562 32.03125 29.476562 32.019531 C 29.597656 32.015625 29.71875 32.046875 29.824219 32.109375 L 36.222656 35.828125 C 36.542969 36.015625 36.914062 36.105469 37.285156 36.085938 C 37.921875 36.058594 38.855469 35.863281 39.226562 35.03125 C 39.550781 34.296875 39.265625 33.4375 38.578125 33.027344 L 31.574219 28.824219 C 31.367188 28.699219 31.246094 28.46875 31.261719 28.230469 C 31.28125 27.910156 31.441406 27.550781 32.09375 27.65625 C 32.171875 27.667969 32.246094 27.695312 32.316406 27.738281 L 40.273438 32.480469 C 40.863281 32.832031 41.589844 32.890625 42.222656 32.621094 C 42.695312 32.417969 43.113281 32.035156 43.136719 31.3125 " fill-opacity="1" fill-rule="nonzero"/><path fill="#32b4b4" d="M 46.042969 26.195312 L 39.402344 14.3125 C 39.351562 14.21875 39.238281 14.171875 39.136719 14.203125 C 38.660156 14.347656 38.0625 14.492188 37.976562 14.5 C 37.71875 14.53125 37.460938 14.546875 37.203125 14.546875 C 36.328125 14.546875 35.457031 14.375 34.628906 14.089844 C 32.707031 13.429688 30.3125 13.238281 28.179688 13.238281 C 26.601562 13.238281 25.164062 13.34375 24.164062 13.4375 C 23.335938 13.515625 22.535156 13.574219 21.734375 13.8125 C 20.984375 14.035156 20.339844 14.546875 19.816406 15.113281 C 19.675781 15.265625 19.539062 15.417969 19.40625 15.574219 C 18.867188 16.203125 18.371094 16.871094 17.898438 17.546875 C 17.203125 18.53125 14.988281 21.234375 16.605469 22.261719 C 16.890625 22.445312 17.234375 22.519531 17.574219 22.519531 C 17.691406 22.519531 17.804688 22.511719 17.917969 22.496094 C 19.210938 22.316406 20.367188 21.546875 21.277344 20.644531 C 21.714844 20.207031 22.109375 19.722656 22.460938 19.210938 C 22.519531 19.125 22.757812 18.597656 22.859375 18.574219 L 25.078125 17.992188 L 25.820312 17.796875 C 25.839844 17.792969 25.859375 17.789062 25.878906 17.789062 C 25.917969 17.789062 25.957031 17.800781 25.992188 17.816406 C 27.136719 18.4375 37.109375 23.90625 42.832031 28.84375 C 42.832031 28.847656 42.832031 28.847656 42.832031 28.847656 C 42.910156 28.914062 43.027344 28.914062 43.105469 28.847656 L 46.03125 26.445312 C 46.082031 26.371094 46.089844 26.273438 46.042969 26.195312 " fill-opacity="1" fill-rule="nonzero"/></svg>